<svg class="logo white" x="0px" y="0px" viewBox="0 0 225 14">
<use xlink:href="#logo"></use>



<g id="logo">
<path d="M94.63,13.39L86.95,4a0.46,0.46,0,0,0-.64,0L78.6,13.45l-0.23.2a2.09,2.09,0,0,1-1.19.35A2.17,2.17,0,0,1,76,13.65l-0.23-.2L66.31,2V1.83a1.16,1.16,0,0,1,0-.52,1.19,1.19,0,0,1,.61-1,2.26,2.26,0,0,1,2.35,0l0.23,0.2L76.92,10a0.46,0.46,0,0,0,.32,0h0.32L85.3,0.55l0.23-.17A2.09,2.09,0,0,1,86.72,0a2.17,2.17,0,0,1,1.22.35l0.23,0.2L95.87,10a0.38,0.38,0,0,0,.32,0h0.32l7.74-9.48,0.23-.2A2.09,2.09,0,0,1,105.7,0a2.17,2.17,0,0,1,1.22.35l0.23,0.2,9.48,11.27V12a1,1,0,0,1,0,.49h0a1.19,1.19,0,0,1-.61,1,2.32,2.32,0,0,1-1.13.32,2.23,2.23,0,0,1-1.22-.35l-0.2-.17L105.9,3.91a0.43,0.43,0,0,0-.32,0,0.38,0.38,0,0,0-.32,0l-7.8,9.48-0.23.2a2.14,2.14,0,0,1-2.67-.23"></path><path d="M103.9,11.54a1.25,1.25,0,0,1-1.16-1.33h0a1.28,1.28,0,0,1,1.16-1.33h2.9A1.25,1.25,0,0,1,108,10.2h0a1.28,1.28,0,0,1-1.16,1.33h-2.9Z"></path><path d="M18.2,6.44h0A6.93,6.93,0,0,0,12.4.12H5.8A7,7,0,0,0,0,6.44V7H0V7.51H0a7,7,0,0,0,5.8,6.38H12.4a7,7,0,0,0,5.8-6.35V7h0V6.44Zm-6.55,4.72H6.41A4.17,4.17,0,0,1,2.67,7,4.12,4.12,0,0,1,6.43,2.84h5.25A4.12,4.12,0,0,1,15.42,7a4.14,4.14,0,0,1-3.77,4.2"></path><polygon points="116.51 0.12 134.16 0.12 134.16 2.87 126.71 2.87 126.71 13.86 124.25 13.86 123.96 13.86 123.96 2.87 116.51 2.87 116.51 0.12"></polygon><path d="M23.48,13.88V0.23H36.84a4.12,4.12,0,0,1,3.68,4.12h0a4.09,4.09,0,0,1-3.71,4.09H26.23v5.42H23.48v0Zm2.7-8.26H36.63a1.39,1.39,0,0,0,0-2.72H26.2V5.8Z"></path><path d="M58.78,5.62H49.27a1.39,1.39,0,0,1,0-2.72H61.7V0H49.1a4.12,4.12,0,0,0-3.71,4.09h0A4.09,4.09,0,0,0,49.07,8.2h9.51a1.39,1.39,0,0,1,0,2.72H45.42v2.9H58.78a4.09,4.09,0,0,0,3.65-4.09h0a4.12,4.12,0,0,0-3.68-4.12"></path><g class="portal"><rect x="148.52" y="0.09" width="2" height="13.83"></rect><path d="M172.4,4.61a3.54,3.54,0,0,1-1.24,2.91,5.49,5.49,0,0,1-3.54,1h-1.26v4.54h-2V0.94h3.5a5.29,5.29,0,0,1,3.41.93A3.34,3.34,0,0,1,172.4,4.61Zm-6.05,2.26h1.05a3.78,3.78,0,0,0,2.24-.53,1.93,1.93,0,0,0,.71-1.66,1.89,1.89,0,0,0-.64-1.56,3.15,3.15,0,0,0-2-.51h-1.38V6.87Z"></path><path d="M185.26,7a6.63,6.63,0,0,1-1.48,4.61,6.23,6.23,0,0,1-8.42,0A6.68,6.68,0,0,1,173.88,7a6.57,6.57,0,0,1,1.48-4.62A5.46,5.46,0,0,1,179.59.75a5.35,5.35,0,0,1,4.18,1.64A6.63,6.63,0,0,1,185.26,7ZM176,7a5.44,5.44,0,0,0,.9,3.4,3.68,3.68,0,0,0,5.35,0,5.45,5.45,0,0,0,.9-3.41,5.46,5.46,0,0,0-.89-3.39,3.16,3.16,0,0,0-2.66-1.15,3.22,3.22,0,0,0-2.69,1.15A5.39,5.39,0,0,0,176,7Z"></path><path d="M189.51,8.23v4.85h-2V0.94H191a5.63,5.63,0,0,1,3.48.88,3.16,3.16,0,0,1,1.13,2.66,3.32,3.32,0,0,1-2.36,3.23l3.43,5.37h-2.26l-2.91-4.85h-2Zm0-1.64h1.38a3.15,3.15,0,0,0,2-.51,1.87,1.87,0,0,0,.62-1.53,1.64,1.64,0,0,0-.67-1.48,3.69,3.69,0,0,0-2-.45h-1.31v4Z"></path><path d="M202.24,13.08h-2V2.65h-3.57V0.94h9.12v1.7h-3.57V13.08Z"></path><path d="M214.86,13.08l-1.21-3.37H209l-1.19,3.37h-2.09l4.54-12.19h2.16L217,13.08h-2.11ZM213.12,8L212,4.7q-0.12-.33-0.34-1t-0.3-1a18.56,18.56,0,0,1-.66,2.23L209.58,8h3.54Z"></path><path d="M218.23,13.08V0.94h2V11.38h5.14v1.7h-7.12Z"></path></g>
</g>

</svg>
